<svg fill="#fff" viewBox="0 0 64 64" xmlns="http://www.w3.org/2000/svg" fill-rule="evenodd" clip-rule="evenodd" stroke-linejoin="round" stroke-miterlimit="2"><path fill="none" d="M-1216-192H64v800h-1280z"/><path d="M31.623 32.222a12.213 12.213 0 01-12.237-12.237c0-6.778 5.46-12.237 12.237-12.237 6.778 0 12.238 5.46 12.238 12.237 0 6.778-5.46 12.237-12.238 12.237zm0-20.71a8.437 8.437 0 00-8.472 8.473 8.437 8.437 0 008.472 8.472 8.437 8.437 0 008.473-8.472 8.437 8.437 0 00-8.473-8.472zM15.056 47.095v8.127c0 .933-3.765.933-3.765 0v-8.127c0-7.436 9.13-13.178 20.709-13.178 11.579 0 20.71 5.742 20.71 13.178v8.127c0 .933-3.766.933-3.766 0v-8.127c0-5.083-7.719-9.413-16.944-9.413-9.225 0-16.944 4.33-16.944 9.413z" fill-rule="nonzero"/></svg>